<svg viewBox="0 0 100 100" xmlns="http://www.w3.org/2000/svg">
    <rect width="100" height="100" fill="#16324B"/>
    <g stroke="#ffffff" stroke-width="5" stroke-linecap="round">
        <g transform="rotate(60 50 50)"><line x1="50" y1="50" x2="50" y2="16"/><line x1="50" y1="27" x2="44" y2="21"/><line x1="50" y1="27" x2="56" y2="21"/></g>
        <g transform="rotate(120 50 50)"><line x1="50" y1="50" x2="50" y2="16"/><line x1="50" y1="27" x2="44" y2="21"/><line x1="50" y1="27" x2="56" y2="21"/></g>
        <g transform="rotate(180 50 50)"><line x1="50" y1="50" x2="50" y2="16"/><line x1="50" y1="27" x2="44" y2="21"/><line x1="50" y1="27" x2="56" y2="21"/></g>
        <g transform="rotate(240 50 50)"><line x1="50" y1="50" x2="50" y2="16"/><line x1="50" y1="27" x2="44" y2="21"/><line x1="50" y1="27" x2="56" y2="21"/></g>
        <g transform="rotate(300 50 50)"><line x1="50" y1="50" x2="50" y2="16"/><line x1="50" y1="27" x2="44" y2="21"/><line x1="50" y1="27" x2="56" y2="21"/></g>
    </g>
    <g stroke="#e8422e" stroke-width="5" stroke-linecap="round">
        <line x1="50" y1="50" x2="50" y2="16"/><line x1="50" y1="27" x2="44" y2="21"/><line x1="50" y1="27" x2="56" y2="21"/>
    </g>
</svg>
