<svg viewBox="0 0 100 100" xmlns="http://www.w3.org/2000/svg">
    <g fill="none" stroke="#ffffff" stroke-width="6" stroke-linecap="round">
        <g transform="rotate(0 50 50)"><line x1="50" y1="50" x2="50" y2="14"/><line x1="50" y1="26" x2="43" y2="19"/><line x1="50" y1="26" x2="57" y2="19"/></g>
        <g transform="rotate(60 50 50)"><line x1="50" y1="50" x2="50" y2="14"/><line x1="50" y1="26" x2="43" y2="19"/><line x1="50" y1="26" x2="57" y2="19"/></g>
        <g transform="rotate(120 50 50)"><line x1="50" y1="50" x2="50" y2="14"/><line x1="50" y1="26" x2="43" y2="19"/><line x1="50" y1="26" x2="57" y2="19"/></g>
        <g transform="rotate(180 50 50)"><line x1="50" y1="50" x2="50" y2="14"/><line x1="50" y1="26" x2="43" y2="19"/><line x1="50" y1="26" x2="57" y2="19"/></g>
        <g transform="rotate(240 50 50)"><line x1="50" y1="50" x2="50" y2="14"/><line x1="50" y1="26" x2="43" y2="19"/><line x1="50" y1="26" x2="57" y2="19"/></g>
        <g transform="rotate(300 50 50)"><line x1="50" y1="50" x2="50" y2="14"/><line x1="50" y1="26" x2="43" y2="19"/><line x1="50" y1="26" x2="57" y2="19"/></g>
    </g>
</svg>
